External Loads File
version=1
nRows=31
nColumns=13
Range=5.000000e-03-10 seconds
endheader
time 	forceRightX 	forceRightY 	forceRightZ 	pointRightX 	pointRightY 	pointRightZ 	forceLeftX 	forceLeftY 	forceLeftZ 	pointLeftX 	pointLeftY 	pointLeftZ 		
5.005000 124.510982 -16.286305 -0.000000 0.212317 0.191135 -0.193472 -15.031962 218.869842 -0.000000 0.430203 0.462955 -0.445345
5.010000 118.354486 -33.744538 -0.000000 0.203460 0.197454 -0.192953 -5.714731 249.368963 -0.000000 0.434537 0.457028 -0.445804
5.015000 111.292011 -48.149879 -0.000000 0.195055 0.203878 -0.192380 4.047297 282.682151 -0.000000 0.438332 0.450712 -0.445895
5.020000 103.384349 -59.883677 -0.000000 0.186840 0.210583 -0.191556 14.150709 317.604083 -0.000000 0.442230 0.443983 -0.446180
5.025000 94.915259 -68.986804 -0.000000 0.179543 0.217444 -0.190658 23.674896 352.722457 -0.000000 0.446050 0.436787 -0.446528
5.030000 86.104534 -75.789960 -0.000000 0.172761 0.224422 -0.189657 32.426564 386.588123 -0.000000 0.449951 0.429181 -0.447098
5.035000 77.299681 -80.541112 -0.000000 0.166256 0.231746 -0.188341 39.664139 417.966311 -0.000000 0.453456 0.421285 -0.447344
5.040000 68.785569 -83.623937 -0.000000 0.160461 0.239112 -0.187584 44.761099 445.929029 -0.000000 0.456780 0.413271 -0.447141
5.045000 60.633889 -85.574460 -0.000000 0.155348 0.246707 -0.186989 47.725625 469.881871 -0.000000 0.460371 0.405385 -0.446803
5.050000 52.871939 -86.843165 -0.000000 0.150598 0.254604 -0.186498 48.231244 489.702985 -0.000000 0.463973 0.397597 -0.446620
5.055000 45.191988 -87.905537 -0.000000 0.145706 0.262688 -0.187562 47.408787 505.538670 -0.000000 0.467283 0.389032 -0.446291
5.060000 37.772536 -88.757184 -0.000000 0.142882 0.271033 -0.186642 43.528567 518.155320 -0.000000 0.470467 0.380255 -0.446102
5.065000 30.152260 -89.559299 -0.000000 0.138999 0.279562 -0.188105 38.856104 528.225503 -0.000000 0.473395 0.370984 -0.446077
5.070000 22.614620 -90.084625 -0.000000 0.136330 0.288193 -0.188441 31.883906 536.901358 -0.000000 0.476096 0.361641 -0.446130
5.075000 15.162952 -90.264205 -0.000000 0.134290 0.296898 -0.188746 23.234586 545.177604 -0.000000 0.478477 0.352319 -0.445923
5.080000 7.856860 -90.049428 -0.000000 0.132800 0.305787 -0.189388 13.532269 553.986568 -0.000000 0.480519 0.343099 -0.446197
5.085000 0.748582 -89.415857 -0.000000 0.131613 0.314844 -0.189240 3.672647 564.129290 -0.000000 0.482103 0.333720 -0.446143
5.090000 -5.996298 -88.342680 -0.000000 0.131011 0.324011 -0.189583 -5.908878 576.276138 -0.000000 0.483138 0.324186 -0.445916
5.095000 -12.132602 -86.836720 -0.000000 0.131238 0.333173 -0.190037 -15.138766 590.907563 -0.000000 0.483740 0.314623 -0.446045
5.100000 -17.500947 -84.931337 -0.000000 0.132064 0.342350 -0.190029 -23.625395 608.280167 -0.000000 0.483915 0.305071 -0.445635
5.105000 -22.014128 -82.670004 -0.000000 0.132904 0.351651 -0.189649 -31.096456 628.448074 -0.000000 0.484785 0.295502 -0.446614
5.110000 -25.625428 -80.095438 -0.000000 0.134791 0.360796 -0.189598 -37.681851 651.302198 -0.000000 0.484279 0.286060 -0.446760
5.115000 -28.413801 -77.213203 -0.000000 0.137254 0.369892 -0.189737 -43.197314 676.661825 -0.000000 0.483109 0.276810 -0.446980
5.120000 -30.492327 -74.023941 -0.000000 0.140005 0.378881 -0.189940 -47.846546 704.312506 -0.000000 0.481592 0.267679 -0.447333
5.125000 -32.299483 -70.413331 -0.000000 0.144877 0.387833 -0.191653 -49.048730 734.264659 -0.000000 0.476805 0.258602 -0.444916
5.130000 -33.637461 -66.572951 -0.000000 0.149201 0.396602 -0.192421 -50.433737 766.066967 -0.000000 0.473725 0.249556 -0.444719
5.135000 -34.820770 -62.498370 -0.000000 0.154145 0.405242 -0.192823 -50.273716 799.463526 -0.000000 0.470127 0.240549 -0.444529
5.140000 -35.923014 -58.289332 -0.000000 0.159678 0.413714 -0.193065 -48.847236 833.889970 -0.000000 0.465830 0.231915 -0.444583
5.145000 -36.980497 -54.048562 -0.000000 0.165680 0.421850 -0.193503 -46.696253 868.692401 -0.000000 0.461164 0.223717 -0.444504
5.150000 -38.129119 -49.785020 -0.000000 0.172279 0.429857 -0.193719 -42.584651 903.283285 -0.000000 0.456084 0.215779 -0.444340
5.155000 -39.418457 -45.535974 -0.000000 0.179318 0.437738 -0.194070 -36.239891 936.951309 -0.000000 0.450575 0.208053 -0.444211
